<svg width="226" height="75" viewBox="0 0 226 75" fill="none" xmlns="http://www.w3.org/2000/svg">
<g clip-path="url(#clip0_348_10396)">
<rect y="0.5" width="226" height="74" rx="20" fill="white"/>
<path opacity="0.59" d="M15.9879 25.7715H47.8443C47.8443 29.5895 46.9147 33.2512 45.2599 35.951C43.6051 38.6507 41.3607 40.1674 39.0205 40.1674H16.0162C14.8464 40.1674 13.7245 39.4093 12.8973 38.0598C12.0702 36.7102 11.6055 34.8799 11.6055 32.9714C11.6055 31.0625 12.0701 29.2318 12.8972 27.8816C13.7243 26.5315 14.8462 25.7725 16.0162 25.7715H15.9879Z" fill="#8DC63F"/>
<path opacity="0.59" d="M47.4642 6.78516L41.0957 21.1811H49.4596C51.7998 21.1811 54.0442 19.6644 55.699 16.9646C57.3538 14.2649 58.2835 10.6032 58.2835 6.78516H47.4642Z" fill="#8DC63F"/>
<path opacity="0.59" d="M30.3045 20.9156L36.5432 6.78516H16.0557C18.9965 6.78294 21.8811 8.09987 24.3941 10.592C26.9071 13.0841 28.9517 16.6554 30.3045 20.9156Z" fill="#8DC63F"/>
<path d="M30.3704 21.1803L30.3034 20.9609L30.2109 21.1803H30.3704Z" fill="#7DC242"/>
<path d="M36.7599 6.41153L36.5429 6.79635L30.3042 20.9152L30.3726 21.1346H30.2098L28.1672 25.7716L21.5369 40.6332C20.7579 42.1247 19.7633 43.2759 18.6431 43.9827C17.5229 44.6896 16.3124 44.9298 15.1209 44.6817C13.9295 44.4335 12.7948 43.7048 11.8194 42.5615C10.8439 41.4181 10.0585 39.8962 9.53417 38.1332C9.00982 36.3703 8.76305 34.4219 8.81618 32.4643C8.86931 30.5067 9.22066 28.6015 9.83847 26.921C10.4563 25.2406 11.321 23.8379 12.3546 22.8396C13.3882 21.8414 14.5579 21.2792 15.7581 21.2038H30.2098L30.3042 20.9806C28.9568 16.7083 26.9145 13.1236 24.4011 10.6196C21.8877 8.11551 19.0003 6.78878 16.0553 6.7848H15.0953C12.4214 7.05102 9.8309 8.4057 7.56035 10.7252C5.28981 13.0447 3.41153 16.255 2.09698 20.0633C0.782431 23.8715 0.0734889 28.1563 0.0348701 32.5264C-0.00374866 36.8966 0.629186 41.2129 1.8759 45.0814C3.12261 48.9499 4.94338 52.2473 7.17199 54.6726C9.40061 57.0979 11.9661 58.5738 14.6342 58.9657C17.3023 59.3576 19.9881 58.6529 22.4464 56.9159C24.9047 55.179 27.0572 52.4652 28.7073 49.0221L29.3041 47.7176L39.0478 25.7831L41.0904 21.1923L47.4589 6.79635L49.0699 3.26374C47.1806 1.02251 44.8237 0.0952592 42.516 0.685364C40.2083 1.27547 38.1382 3.33475 36.7599 6.41153Z" fill="#7DC242"/>
<path d="M110 15.3505V20.7379C110.77 19.4725 111.691 18.4784 112.705 17.8172C113.787 17.1195 114.939 16.7605 116.102 16.7589C122.327 16.7589 125.44 22.712 125.44 34.6182V58.9039C123.397 58.8806 121.442 57.5431 120 55.1819C118.558 52.8207 117.746 49.6266 117.739 46.2935V35.4648C117.832 33.504 117.47 31.558 116.725 30.012C116.355 29.3881 115.908 28.9015 115.413 28.5854C114.918 28.2693 114.387 28.1311 113.856 28.1802C113.334 28.1391 112.812 28.2814 112.326 28.5974C111.841 28.9134 111.402 29.3957 111.04 30.012C110.28 31.5471 109.908 33.4974 110 35.4648V58.9116C108.985 58.9207 107.979 58.6035 107.039 57.9782C106.099 57.3528 105.244 56.4315 104.523 55.2669C103.801 54.1023 103.228 52.7172 102.834 51.1907C102.441 49.6642 102.236 48.0263 102.23 46.3705V2.72469C103.247 2.71862 104.254 3.03928 105.195 3.66837C106.136 4.29747 106.991 5.22267 107.713 6.39115C108.434 7.55964 109.007 8.94852 109.4 10.4785C109.792 12.0085 109.996 13.6496 110 15.3082V15.3505Z" fill="#7DC242"/>
<path d="M157.119 38.2479C157.109 34.3814 157.797 30.5956 159.096 27.3615C160.382 24.0518 162.191 21.3681 164.332 19.5921C166.225 17.9582 168.31 17.0028 170.448 16.7898C172.585 16.5768 174.726 17.111 176.727 18.3568C178.434 19.3715 180.003 20.9235 181.343 22.9246C182.668 24.8754 183.741 27.2398 184.497 29.8782C185.256 32.5869 185.643 35.5346 185.629 38.5135C185.642 41.4807 185.249 44.4153 184.478 47.1025C183.736 49.7347 182.673 52.0919 181.352 54.0292C180.025 56.0304 178.465 57.5771 176.765 58.5777C173.294 60.6365 169.489 60.6365 166.019 58.5777L165.464 58.1929L164.896 57.8081V74.5014C162.84 74.4892 160.872 73.1482 159.421 70.7722C157.971 68.3962 157.156 65.1791 157.157 61.8256L157.119 38.2479ZM164.86 38.5135C164.843 40.319 165.158 42.0916 165.766 43.6007C166.357 45.1847 167.186 46.496 168.174 47.4104C169.139 48.3274 170.237 48.807 171.354 48.7996C172.488 48.8123 173.604 48.3329 174.588 47.4104C175.565 46.5212 176.389 45.2456 176.984 43.7008C177.585 42.1891 177.9 40.4227 177.89 38.6212C177.894 37.2525 177.724 35.8973 177.388 34.6427C177.052 33.3882 176.56 32.262 175.942 31.3366C174.731 29.3843 173.097 28.2894 171.394 28.2894C169.691 28.2894 168.058 29.3843 166.846 31.3366C166.223 32.2523 165.725 33.3724 165.384 34.6236C165.044 35.8749 164.87 37.2293 164.872 38.5981L164.86 38.5135Z" fill="#7DC242"/>
<path d="M201.034 16.7871C198.934 16.7837 196.864 17.5926 194.993 19.1475C193.122 20.7024 191.504 22.959 190.272 25.7319C189.039 28.5049 188.227 31.7152 187.903 35.0994C187.578 38.4835 187.75 41.945 188.405 45.1997C189.059 48.4544 190.177 51.4096 191.667 53.8226C193.157 56.2355 194.977 58.0375 196.977 59.0807C198.977 60.1239 201.1 60.3784 203.171 59.8234C205.243 59.2685 207.205 57.9198 208.895 55.8882C209.549 57.2054 210.376 58.2661 211.315 58.9921C212.254 59.7181 213.281 60.0908 214.32 60.0827V38.4484C214.32 35.6025 213.976 32.7845 213.308 30.1554C212.641 27.5263 211.662 25.1377 210.428 23.1261C209.194 21.1145 207.729 19.5192 206.117 18.4316C204.505 17.3439 202.778 16.7851 201.034 16.7871ZM201.034 48.6922C199.789 48.6914 198.573 48.0886 197.538 46.96C196.503 45.8314 195.697 44.2277 195.221 42.3516C194.745 40.4755 194.621 38.4113 194.864 36.42C195.107 34.4286 195.707 32.5996 196.587 31.1642C197.467 29.7287 198.588 28.7512 199.809 28.3554C201.03 27.9596 202.295 28.1631 203.445 28.9403C204.594 29.7175 205.577 31.0334 206.268 32.7217C206.96 34.41 207.329 36.3949 207.329 38.4253V38.4484C207.329 39.7939 207.166 41.1263 206.851 42.3694C206.535 43.6125 206.072 44.7419 205.489 45.6932C204.906 46.6445 204.213 47.3989 203.451 47.9135C202.689 48.4281 201.872 48.6927 201.048 48.6922H201.034Z" fill="#7DC242"/>
<path d="M141.3 16.7852C139.2 16.7787 137.129 17.585 135.257 19.1379C133.385 20.6909 131.766 22.9461 130.532 25.7183C129.298 28.4906 128.485 31.7009 128.159 35.0855C127.833 38.4702 128.004 41.9327 128.658 45.1886C129.311 48.4446 130.429 51.4011 131.919 53.8155C133.409 56.2299 135.229 58.0331 137.229 59.0773C139.229 60.1214 141.352 60.3766 143.425 59.8219C145.497 59.2672 147.459 57.9184 149.15 55.8863C149.805 57.1972 150.63 58.2537 151.567 58.9793C152.503 59.7048 153.527 60.0811 154.563 60.0808V38.4465C154.563 32.7055 153.166 27.1994 150.679 23.1378C148.192 19.0762 144.819 16.7913 141.3 16.7852ZM141.3 48.6902C140.056 48.6948 138.838 48.0971 137.802 46.9728C136.765 45.8484 135.956 44.2479 135.478 42.3737C134.999 40.4994 134.871 38.4355 135.111 36.4431C135.351 34.4506 135.948 32.619 136.826 31.18C137.704 29.7409 138.824 28.759 140.044 28.3583C141.265 27.9577 142.53 28.1564 143.681 28.9292C144.832 29.7021 145.817 31.0144 146.511 32.7002C147.204 34.3861 147.576 36.3697 147.579 38.4003V38.4465C147.575 41.1611 146.912 43.7625 145.735 45.682C144.559 47.6016 142.964 48.6831 141.3 48.6902Z" fill="#7DC242"/>
<path d="M87.5758 46.9667C86.0186 46.9536 84.4874 46.3145 83.1178 45.1058C81.7481 43.8971 80.5822 42.1561 79.7232 40.037C78.8643 37.9178 78.3389 35.4859 78.1934 32.9565C78.0479 30.427 78.2869 27.8781 78.8892 25.5352C79.4915 23.1924 80.4385 21.128 81.6465 19.5247C82.8544 17.9214 84.286 16.8286 85.8146 16.3432C87.3431 15.8578 88.9214 15.9947 90.4097 16.7417C91.8981 17.4887 93.2506 18.8229 94.3476 20.6261L99.8669 11.7984C97.4775 7.82353 94.4192 5.09394 91.0788 3.95485C87.7384 2.81575 84.2661 3.3183 81.1008 5.39895C77.9355 7.4796 75.2194 11.0449 73.2962 15.6439C71.3729 20.243 70.3287 25.6693 70.2957 31.2365C70.2627 36.8038 71.2424 42.2619 73.1108 46.9208C74.9793 51.5797 77.6525 55.2299 80.7926 57.41C83.9326 59.5901 87.3984 60.2021 90.7516 59.1686C94.1049 58.1351 97.1949 55.5025 99.6311 51.6037L99.7679 51.3844L94.3476 42.5528C93.4532 43.9811 92.3944 45.1065 91.2321 45.864C90.0699 46.6216 88.8272 46.9963 87.5758 46.9667Z" fill="#7DC242"/>
<path d="M219.693 15.8363V9.98707H218.342V9.25977H221.441V9.98707H220.087V15.8363H219.693Z" fill="#7DC242"/>
<path d="M226 15.8356H225.528V10.7598L224.241 15.7932H223.821L222.535 10.7598V15.8356H222.063V9.21289H222.66L224.014 14.7119L225.366 9.21289H226.002L226 15.8356Z" fill="#7DC242"/>
</g>
<defs>
<clipPath id="clip0_348_10396">
<rect y="0.5" width="226" height="74" rx="20" fill="white"/>
</clipPath>
</defs>
</svg>
