<svg width="1430" height="213" viewBox="0 0 1430 213" fill="none" xmlns="http://www.w3.org/2000/svg">
<path d="M0 0L96.7154 29.1587C157.168 47.3847 221.81 46.2348 281.576 25.8701V25.8701C331.332 8.91637 384.648 5.22236 436.266 15.1522L464.001 20.4875C514.333 30.1699 566.069 29.9521 616.317 19.8464L631.837 16.7251C686.405 5.75082 742.855 8.65152 796.01 25.1612V25.1612C860.931 45.3251 930.472 45.1043 995.263 24.5283L997.348 23.8662C1046.79 8.16444 1099.18 4.00401 1150.48 11.7045L1180.9 16.2712C1227.21 23.2225 1274.3 23.2416 1320.61 16.328L1430 0V213H0V0Z" fill="url(#paint0_linear_91_10454)" fill-opacity="0.8"/>
<defs>
<linearGradient id="paint0_linear_91_10454" x1="0" y1="106.5" x2="1430" y2="106.5" gradientUnits="userSpaceOnUse">
<stop stop-color="#0052D4"/>
<stop offset="0.5" stop-color="#4364F7"/>
<stop offset="1" stop-color="#6FB1FC"/>
</linearGradient>
</defs>
</svg>
