<svg width="1429" height="586" viewBox="0 0 1429 586" fill="none" xmlns="http://www.w3.org/2000/svg">
<path d="M2 185.965L38.7694 159.506C108.924 109.022 204.875 114.691 268.596 173.084L297.222 199.316C355.453 252.677 445.863 248.928 499.476 190.929C553.712 132.257 645.432 129.205 703.448 184.143L745.617 224.074C793.108 269.046 859.524 288.074 923.625 275.073L970.562 265.553C1008.7 257.817 1044.2 240.355 1073.6 214.86C1159.62 140.276 1287.71 141.398 1372.4 217.476L1378 222.503V581.084L2 595.84V185.965Z" fill="url(#paint0_linear_223_10862)" fill-opacity="0.5"/>
<path d="M-11 185.739L74.4074 106.171C130.624 53.7974 219.489 60.1982 267.62 120.088L290.363 148.386C334.701 203.556 419.744 200.184 459.575 141.676C499.801 82.5858 585.945 79.8582 629.829 136.285L639.756 149.05C682.892 204.514 766.996 203.666 809.005 147.344C847.067 96.3149 921.126 89.9152 967.378 133.659L975.359 141.207C1026.83 189.888 1109.52 181.547 1150.23 123.567L1161.31 107.784C1203.22 48.1095 1285.39 33.3736 1345.42 74.7699L1429 132.408V595.837H-11V185.739Z" fill="url(#paint1_linear_223_10862)"/>
<path d="M-11 92.8398L82.5939 159.013C140.285 199.802 217.998 197.519 273.195 153.413C319.724 116.233 383.159 108.25 437.45 132.742L455.371 140.827C504.629 163.048 561.151 162.571 610.026 139.519L618.186 135.671C674.179 109.263 740.12 115.506 790.161 151.955C850.132 195.636 931.55 195.204 991.054 150.889L994.31 148.464C1041 113.693 1101.93 104.432 1156.84 123.761L1177.18 130.921C1223.35 147.171 1273.67 147.214 1319.86 131.044L1429 92.8398V595.84H-11V92.8398Z" fill="url(#paint2_linear_223_10862)" fill-opacity="0.8"/>
<defs>
<linearGradient id="paint0_linear_223_10862" x1="-70.1946" y1="330.241" x2="1672.99" y2="330.241" gradientUnits="userSpaceOnUse">
<stop stop-color="#0052D4"/>
<stop offset="0.5" stop-color="#4364F7"/>
<stop offset="1" stop-color="#6FB1FC"/>
</linearGradient>
<linearGradient id="paint1_linear_223_10862" x1="-11" y1="297.919" x2="1429" y2="297.919" gradientUnits="userSpaceOnUse">
<stop stop-color="#0052D4"/>
<stop offset="0.5" stop-color="#4364F7"/>
<stop offset="1" stop-color="#6FB1FC"/>
</linearGradient>
<linearGradient id="paint2_linear_223_10862" x1="-11" y1="344.34" x2="1429" y2="344.34" gradientUnits="userSpaceOnUse">
<stop stop-color="#0052D4"/>
<stop offset="0.5" stop-color="#4364F7"/>
<stop offset="1" stop-color="#6FB1FC"/>
</linearGradient>
</defs>
</svg>
